#!OML:ASF F:\VICON\USERDATA\INSTALL\rory3\rory3.ASF
:FULLY-SPECIFIED
:DEGREES
63
root 1.0135473363136802 17.861786351097248 34.69832227468622 -3.8915366880564775 -0.1671434777126208 -7.890598405556336
lfemur -16.247671248227896 -1.2261233944557177 -13.53895091103124
ltibia 26.25528983623778
lfoot -8.449085513690202 -2.2651133949401503
ltoes -16.903316108823848
rfemur -8.30315250202409 3.2250066469906447 32.148357283881175
rtibia 48.479099010568305
rfoot -5.6745851883379865 -11.339629397461351
rtoes 6.454435140620957
lowerback nan 1.3791799774451412 5.724074961624848
upperback -0.22910059123564458 2.8329861835174106 1.919562904784061
thorax -5.842569209371469 1.274483636967192 -1.51081245803861
lowerneck -16.11463978758621 -3.905566846836 -1.6570913915808256
upperneck 21.668785594473267 -5.566201320319293 1.9280887765523143
head 9.751089064458672 -2.465933588088505 0.19515064481769534
lclavicle -2.5453714019397986e-15 -2.771982980336509e-15
lhumerus -31.308852765053437 3.5380347393188307 82.2275229184431
lradius 26.980101787631117
lwrist 10.655846076636443
lhand -29.609304653748804 18.614276950607398
lfingers nan
lthumb -2.89321640186545 48.631134199275394
rclavicle -2.531429924439341e-15 -2.7607037842132065e-15
rhumerus -27.950059681366465 -17.096263115559374 -75.90975035721458
rradius 31.99147994603114
rwrist 2.9334221159793747
rhand -17.981925067810742 nan
rfingers nan
rthumb 8.586529292840327 -7.348652822760369
64
root 1.0279917390560107 17.86895515000413 35.65516590528228 -3.913759432916744 0.34698950083141566 -7.099020485124061
lfemur -14.770168828487366 -1.6032207444626425 -14.851044354507682
ltibia 24.81796150379834
lfoot -8.789560536615088 -3.183288553726987
ltoes -14.957574224584139
rfemur -9.694095884671924 2.4712582668653247 30.877171318144292
rtibia 50.81956892507269
rfoot -6.3675747229334245 -10.343483025967231
rtoes 5.9554040727831055
lowerback nan 1.2315843488180518 5.094250050862865
upperback -0.22409936611250814 2.555549942989415 1.8123390084991422
thorax -5.8534554722754475 1.1544129780556371 -1.3066644108944618
lowerneck -16.190548662044705 -3.904085183802701 -1.6579049502368617
upperneck 21.591909607885107 -5.568695707227654 2.0771056242833277
head 9.737344442925329 -2.4566814450515384 0.24794206458311743
lclavicle -2.5493210793827124e-15 -2.773654491634827e-15
lhumerus -30.328154362498097 2.600107457227515 82.04589164586143
lradius 27.431255750338234
lwrist 10.136960455567253
lhand -29.54189011344104 18.456189416780337
lfingers nan
lthumb -2.8025058079270466 48.53362370842987
rclavicle -2.5314364621062774e-15 -2.7601672730109343e-15
rhumerus -28.279869559145332 -16.90438682082226 -76.4376731053365
rradius 31.68594958439396
rwrist 2.9739002572908197
rhand -18.021937147299724 nan
rfingers nan
rthumb 8.61719758482748 -7.373369940106288
65
root 1.0446308604816683 17.87677552828119 36.2943679907654 -3.9011067397296157 0.8313791122028062 -6.3909987613207155
lfemur -13.11745715981088 -2.030704989219432 -16.217860721077045
ltibia 24.621937858198724
lfoot -9.447847952565779 -3.2126376968558223
ltoes -14.263558866988081
rfemur -11.747482959957402 1.6128969233629493 29.412491332001974
rtibia 53.323236255633354
rfoot -6.94888533485878 -9.28477056630961
rtoes 5.1290156718975215
lowerback nan 1.0990474264796786 4.559943524699161
upperback -0.22243620201607156 2.280869535319001 1.7238767476504964
thorax -5.8847922398810875 1.024807414278054 -1.1180881502507256
lowerneck -16.28238747444597 -3.8917997168477947 -1.637158364263244
upperneck 21.493009107503266 -5.553192251311066 2.1946007464082973
head 9.716545616702925 -2.441895212289878 0.2922670895909172
lclavicle -2.5526413967270297e-15 -2.774890273981744e-15
lhumerus -29.265542856291418 1.7489143703295076 81.80966264421997
lradius 27.849951074612445
lwrist 9.214499271136892
lhand -29.459335101032785 18.387932688496242
lfingers nan
lthumb -2.6817785182984495 48.57772387387193
rclavicle -2.531952076774858e-15 -2.759896470095365e-15
rhumerus -28.613229105570564 -16.85385057655046 -76.91267789051396
rradius 31.264622342727876
rwrist 2.970217630292459
rhand -18.016639430442392 nan
rfingers nan
rthumb 8.636950807659586 -7.422636430242392
66
root 1.0584886972558376 17.883070305959027 37.72339647190772 -3.8826975492195333 1.4678514966315739 -4.638243229543836
lfemur -10.97090107472234 -2.5656620351126196 -18.51447958645188
ltibia 24.753588723538236
lfoot -9.400471430871963 -2.2468090379225387
ltoes -13.855104832540654
rfemur -14.522618328991472 0.5283078063742259 26.941786451163065
rtibia 55.796836617677855
rfoot -7.357334289341875 -8.34162736148409
rtoes 4.08369061517887
lowerback nan 0.7581891712846787 3.135876315875274
upperback -0.18710546550765106 1.5822489122908143 1.5054271754737654
thorax -5.930091465684042 0.7468195694954842 -0.4776328320252603
lowerneck -16.398449282236253 -3.8563096627539117 -1.6021899562294943
upperneck 21.438855540008717 -5.489379289625037 2.277116417511162
head 9.71401853627413 -2.413882562911039 0.3307988029529114
lclavicle -2.555904721703491e-15 -2.776060900964691e-15
lhumerus -28.19580328462308 1.0900788441374027 81.5532698414445
lradius 28.26354342451283
lwrist 8.157548967566651
lhand -29.46857287075057 18.289310135780294
lfingers nan
lthumb -2.6418569108264656 48.57596948559918
rclavicle -2.53135752782136e-15 -2.758923519047412e-15
rhumerus -28.9822305092639 -17.05247025275768 -77.35198515113083
rradius 30.77747668815416
rwrist 2.957059598845923
rhand -18.051155884282498 nan
rfingers nan
rthumb 8.647886285046784 -7.451915483974736
